# xmcd CD database file
#
# Track frame offsets:
#	150
#	21404
#	42256
#	66145
#	92763
#	122358
#	151656
#	176168
#	194288
#	219238
#	222952
#	241260
#	255655
#	286303
#	305142
#	326211
#
# Disc length: 4672 seconds
#
# Revision: 1
# Processed by: cddbd v1.5.2PL0 Copyright (c) Steve Scherf et al.
# Submitted via: CDex 1.51
#
DISCID=e6123e10
DTITLE=Martirio - 25 Años en Directo
DYEAR=2009
DGENRE=Jazz
TTITLE0=El productor
TTITLE1=Madurito interesante
TTITLE2=Ojos verdes
TTITLE3=María la portuguesa
TTITLE4=Tú eres mi marío
TTITLE5=Torre de arena
TTITLE6=En esta tarde gris
TTITLE7=Volver
TTITLE8=La bien pagá
TTITLE9=Se dice (frag.)
TTITLE10=Compuesta y sin novio
TTITLE11=Las mil calorías
TTITLE12=Temes - ¿Por qué ahora?
TTITLE13=Si te contara
TTITLE14=Fandangos
TTITLE15=Estoy mala
EXTD=YEAR: 2009
EXTT0=
EXTT1=
EXTT2=
EXTT3=
EXTT4=
EXTT5=
EXTT6=
EXTT7=
EXTT8=
EXTT9=
EXTT10=
EXTT11=
EXTT12=
EXTT13=
EXTT14=
EXTT15=
PLAYORDER=
